<mxfile host="Electron" modified="2024-06-23T21:44:37.298Z" agent="Mozilla/5.0 (Windows NT 10.0; Win64; x64) AppleWebKit/537.36 (KHTML, like Gecko) draw.io/24.2.5 Chrome/120.0.6099.109 Electron/28.1.0 Safari/537.36" etag="IeXx9_B60F61OxOjGgVD" version="24.2.5" type="device">
  <diagram name="Page-1" id="dISGizW1WpHT7GVOEg3l">
    <mxGraphModel dx="7750" dy="2070" grid="1" gridSize="15" guides="1" tooltips="1" connect="1" arrows="1" fold="1" page="1" pageScale="1" pageWidth="850" pageHeight="1100" math="0" shadow="0">
      <root>
        <mxCell id="0" />
        <mxCell id="1" parent="0" />
        <mxCell id="nJdUsmHLHT1U4WWe08nF-2" style="edgeStyle=orthogonalEdgeStyle;rounded=0;orthogonalLoop=1;jettySize=auto;html=1;exitX=0;exitY=0.25;exitDx=0;exitDy=0;" parent="1" source="19Ce7UIDu2drrkDC618h-6" edge="1">
          <mxGeometry relative="1" as="geometry">
            <mxPoint x="2520" y="855" as="targetPoint" />
          </mxGeometry>
        </mxCell>
        <mxCell id="19Ce7UIDu2drrkDC618h-6" value="&lt;b&gt;&lt;font style=&quot;font-size: 50px;&quot;&gt;ALU&lt;/font&gt;&lt;/b&gt;" style="verticalLabelPosition=middle;verticalAlign=middle;html=1;shape=trapezoid;perimeter=trapezoidPerimeter;whiteSpace=wrap;size=0.23;arcSize=10;flipV=1;labelPosition=center;align=center;direction=south;fillColor=#F8FF2B;" parent="1" vertex="1">
          <mxGeometry x="540" y="1185" width="285" height="315" as="geometry" />
        </mxCell>
        <mxCell id="19Ce7UIDu2drrkDC618h-9" value="&lt;font style=&quot;font-size: 50px;&quot;&gt;&lt;b&gt;Data&lt;br&gt;Memory&lt;/b&gt;&lt;br&gt;&lt;/font&gt;" style="whiteSpace=wrap;html=1;aspect=fixed;fillColor=#cce5ff;strokeColor=#36393d;" parent="1" vertex="1">
          <mxGeometry x="1290" y="1116.5" width="398.5" height="398.5" as="geometry" />
        </mxCell>
        <mxCell id="19Ce7UIDu2drrkDC618h-11" value="&lt;b style=&quot;&quot;&gt;&lt;font style=&quot;font-size: 50px;&quot;&gt;Registers&lt;/font&gt;&lt;br&gt;&lt;/b&gt;" style="whiteSpace=wrap;html=1;aspect=fixed;fillColor=#60a917;fontColor=#ffffff;strokeColor=#2D7600;" parent="1" vertex="1">
          <mxGeometry x="-629" y="1125" width="435" height="435" as="geometry" />
        </mxCell>
        <mxCell id="19Ce7UIDu2drrkDC618h-12" value="" style="endArrow=classic;html=1;rounded=0;strokeWidth=4;entryX=-0.004;entryY=0.21;entryDx=0;entryDy=0;entryPerimeter=0;" parent="1" target="19Ce7UIDu2drrkDC618h-11" edge="1">
          <mxGeometry width="50" height="50" relative="1" as="geometry">
            <mxPoint x="-958" y="1219" as="sourcePoint" />
            <mxPoint x="-480" y="1219" as="targetPoint" />
            <Array as="points" />
          </mxGeometry>
        </mxCell>
        <mxCell id="19Ce7UIDu2drrkDC618h-13" value="" style="endArrow=classic;html=1;rounded=0;strokeWidth=4;" parent="1" edge="1">
          <mxGeometry width="50" height="50" relative="1" as="geometry">
            <mxPoint x="-1055" y="1320" as="sourcePoint" />
            <mxPoint x="-769" y="1320" as="targetPoint" />
          </mxGeometry>
        </mxCell>
        <mxCell id="19Ce7UIDu2drrkDC618h-14" value="" style="endArrow=classic;html=1;rounded=0;strokeWidth=4;entryX=-0.001;entryY=0.724;entryDx=0;entryDy=0;entryPerimeter=0;" parent="1" target="19Ce7UIDu2drrkDC618h-11" edge="1">
          <mxGeometry width="50" height="50" relative="1" as="geometry">
            <mxPoint x="-960" y="1440" as="sourcePoint" />
            <mxPoint x="-450" y="1440" as="targetPoint" />
          </mxGeometry>
        </mxCell>
        <mxCell id="19Ce7UIDu2drrkDC618h-17" value="" style="endArrow=none;html=1;rounded=0;strokeWidth=10;" parent="1" target="19Ce7UIDu2drrkDC618h-44" edge="1">
          <mxGeometry width="50" height="50" relative="1" as="geometry">
            <mxPoint x="-957" y="1320" as="sourcePoint" />
            <mxPoint x="-1235" y="1319.645" as="targetPoint" />
          </mxGeometry>
        </mxCell>
        <mxCell id="19Ce7UIDu2drrkDC618h-20" value="" style="endArrow=none;html=1;rounded=0;strokeWidth=10;" parent="1" edge="1">
          <mxGeometry width="50" height="50" relative="1" as="geometry">
            <mxPoint x="-960" y="1972" as="sourcePoint" />
            <mxPoint x="-960" y="460" as="targetPoint" />
          </mxGeometry>
        </mxCell>
        <mxCell id="19Ce7UIDu2drrkDC618h-21" value="" style="endArrow=classic;html=1;rounded=0;exitX=0.559;exitY=0;exitDx=0;exitDy=0;exitPerimeter=0;entryX=0;entryY=0.515;entryDx=0;entryDy=0;entryPerimeter=0;strokeWidth=10;" parent="1" edge="1">
          <mxGeometry width="50" height="50" relative="1" as="geometry">
            <mxPoint x="825" y="1316.915" as="sourcePoint" />
            <mxPoint x="1290" y="1314.7275" as="targetPoint" />
          </mxGeometry>
        </mxCell>
        <mxCell id="19Ce7UIDu2drrkDC618h-23" value="&lt;font style=&quot;font-size: 35px;&quot;&gt;Rs1&lt;/font&gt;" style="text;html=1;align=center;verticalAlign=middle;resizable=0;points=[];autosize=1;strokeColor=none;fillColor=none;" parent="1" vertex="1">
          <mxGeometry x="-954.5" y="1162.5" width="90" height="60" as="geometry" />
        </mxCell>
        <mxCell id="19Ce7UIDu2drrkDC618h-24" value="&lt;font style=&quot;font-size: 34px;&quot;&gt;Rs2&lt;/font&gt;" style="text;html=1;align=center;verticalAlign=middle;resizable=0;points=[];autosize=1;strokeColor=none;fillColor=none;" parent="1" vertex="1">
          <mxGeometry x="-954.5" y="1255" width="90" height="60" as="geometry" />
        </mxCell>
        <mxCell id="19Ce7UIDu2drrkDC618h-26" value="&lt;font style=&quot;font-size: 35px;&quot;&gt;Rd&lt;/font&gt;" style="text;html=1;align=center;verticalAlign=middle;resizable=0;points=[];autosize=1;strokeColor=none;fillColor=none;" parent="1" vertex="1">
          <mxGeometry x="-954.5" y="1382" width="75" height="60" as="geometry" />
        </mxCell>
        <mxCell id="19Ce7UIDu2drrkDC618h-27" value="&lt;font style=&quot;font-size: 32px;&quot;&gt;RA&lt;/font&gt;" style="text;html=1;strokeColor=none;fillColor=none;align=center;verticalAlign=middle;whiteSpace=wrap;rounded=0;" parent="1" vertex="1">
          <mxGeometry x="-599" y="1202" width="60" height="30" as="geometry" />
        </mxCell>
        <mxCell id="19Ce7UIDu2drrkDC618h-28" value="&lt;font style=&quot;font-size: 32px;&quot;&gt;RB&lt;/font&gt;" style="text;html=1;strokeColor=none;fillColor=none;align=center;verticalAlign=middle;whiteSpace=wrap;rounded=0;" parent="1" vertex="1">
          <mxGeometry x="-599" y="1304.25" width="60" height="30" as="geometry" />
        </mxCell>
        <mxCell id="19Ce7UIDu2drrkDC618h-29" value="&lt;font style=&quot;font-size: 32px;&quot;&gt;RW&lt;/font&gt;" style="text;html=1;strokeColor=none;fillColor=none;align=center;verticalAlign=middle;whiteSpace=wrap;rounded=0;" parent="1" vertex="1">
          <mxGeometry x="-599" y="1425" width="60" height="30" as="geometry" />
        </mxCell>
        <mxCell id="19Ce7UIDu2drrkDC618h-32" value="&lt;font style=&quot;font-size: 32px;&quot;&gt;BusA&lt;/font&gt;" style="text;html=1;strokeColor=none;fillColor=none;align=center;verticalAlign=middle;whiteSpace=wrap;rounded=0;" parent="1" vertex="1">
          <mxGeometry x="-299" y="1245" width="60" height="30" as="geometry" />
        </mxCell>
        <mxCell id="19Ce7UIDu2drrkDC618h-33" value="&lt;font style=&quot;font-size: 32px;&quot;&gt;BusB&lt;/font&gt;" style="text;html=1;strokeColor=none;fillColor=none;align=center;verticalAlign=middle;whiteSpace=wrap;rounded=0;" parent="1" vertex="1">
          <mxGeometry x="-299" y="1395.5" width="60" height="30" as="geometry" />
        </mxCell>
        <mxCell id="19Ce7UIDu2drrkDC618h-34" value="&lt;font style=&quot;font-size: 32px;&quot;&gt;BusW&lt;/font&gt;" style="text;html=1;strokeColor=none;fillColor=none;align=center;verticalAlign=middle;whiteSpace=wrap;rounded=0;" parent="1" vertex="1">
          <mxGeometry x="-299" y="1500" width="60" height="24.5" as="geometry" />
        </mxCell>
        <mxCell id="19Ce7UIDu2drrkDC618h-37" value="" style="whiteSpace=wrap;html=1;aspect=fixed;fillColor=#76608a;fontColor=#ffffff;strokeColor=#432D57;" parent="1" vertex="1">
          <mxGeometry x="-1673" y="1116.5" width="435" height="435" as="geometry" />
        </mxCell>
        <mxCell id="19Ce7UIDu2drrkDC618h-39" value="&lt;font size=&quot;1&quot; style=&quot;&quot;&gt;&lt;b style=&quot;font-size: 40px;&quot;&gt;Address&lt;/b&gt;&lt;/font&gt;" style="text;html=1;align=center;verticalAlign=middle;resizable=0;points=[];autosize=1;strokeColor=none;fillColor=none;" parent="1" vertex="1">
          <mxGeometry x="-1680" y="1285.75" width="195" height="60" as="geometry" />
        </mxCell>
        <mxCell id="19Ce7UIDu2drrkDC618h-43" value="&lt;font size=&quot;1&quot; color=&quot;#ffffff&quot; style=&quot;&quot;&gt;&lt;b style=&quot;font-size: 44px;&quot;&gt;Instruction Memory&lt;/b&gt;&lt;/font&gt;" style="text;html=1;align=center;verticalAlign=middle;resizable=0;points=[];autosize=1;strokeColor=none;fillColor=none;" parent="1" vertex="1">
          <mxGeometry x="-1673" y="1155" width="435" height="75" as="geometry" />
        </mxCell>
        <mxCell id="19Ce7UIDu2drrkDC618h-44" value="&lt;font size=&quot;1&quot; style=&quot;&quot;&gt;&lt;b style=&quot;font-size: 40px;&quot;&gt;Instruction&lt;/b&gt;&lt;/font&gt;" style="text;html=1;align=center;verticalAlign=middle;resizable=0;points=[];autosize=1;strokeColor=none;fillColor=none;" parent="1" vertex="1">
          <mxGeometry x="-1478" y="1285.75" width="240" height="60" as="geometry" />
        </mxCell>
        <mxCell id="19Ce7UIDu2drrkDC618h-46" value="&lt;font style=&quot;font-size: 32px;&quot;&gt;Address&lt;/font&gt;" style="text;html=1;align=center;verticalAlign=middle;resizable=0;points=[];autosize=1;strokeColor=none;fillColor=none;" parent="1" vertex="1">
          <mxGeometry x="1273" y="1281.5" width="150" height="60" as="geometry" />
        </mxCell>
        <mxCell id="19Ce7UIDu2drrkDC618h-47" value="&lt;font style=&quot;font-size: 32px;&quot;&gt;Data_in&lt;/font&gt;" style="text;html=1;align=center;verticalAlign=middle;resizable=0;points=[];autosize=1;strokeColor=none;fillColor=none;" parent="1" vertex="1">
          <mxGeometry x="1278" y="1403.5" width="135" height="60" as="geometry" />
        </mxCell>
        <mxCell id="19Ce7UIDu2drrkDC618h-49" value="&lt;font style=&quot;font-size: 32px;&quot;&gt;Data_out&lt;/font&gt;" style="text;html=1;align=center;verticalAlign=middle;resizable=0;points=[];autosize=1;strokeColor=none;fillColor=none;" parent="1" vertex="1">
          <mxGeometry x="1531" y="1397.5" width="165" height="60" as="geometry" />
        </mxCell>
        <mxCell id="19Ce7UIDu2drrkDC618h-50" value="" style="endArrow=classic;html=1;rounded=0;strokeWidth=10;exitX=0.997;exitY=0.788;exitDx=0;exitDy=0;exitPerimeter=0;entryX=0.695;entryY=0.957;entryDx=0;entryDy=0;entryPerimeter=0;" parent="1" source="19Ce7UIDu2drrkDC618h-9" target="19Ce7UIDu2drrkDC618h-55" edge="1">
          <mxGeometry width="50" height="50" relative="1" as="geometry">
            <mxPoint x="1695" y="1440" as="sourcePoint" />
            <mxPoint x="1980" y="1425" as="targetPoint" />
          </mxGeometry>
        </mxCell>
        <mxCell id="19Ce7UIDu2drrkDC618h-55" value="" style="ellipse;whiteSpace=wrap;html=1;direction=south;fillColor=#e3c800;fontColor=#000000;strokeColor=#B09500;" parent="1" vertex="1">
          <mxGeometry x="1983.75" y="1305" width="67.5" height="180" as="geometry" />
        </mxCell>
        <mxCell id="19Ce7UIDu2drrkDC618h-57" value="&lt;font style=&quot;font-size: 25px;&quot;&gt;0&lt;/font&gt;" style="text;html=1;align=center;verticalAlign=middle;resizable=0;points=[];autosize=1;strokeColor=none;fillColor=none;" parent="1" vertex="1">
          <mxGeometry x="1995" y="1334.25" width="45" height="45" as="geometry" />
        </mxCell>
        <mxCell id="19Ce7UIDu2drrkDC618h-59" value="&lt;font style=&quot;font-size: 25px;&quot;&gt;1&lt;/font&gt;" style="text;html=1;align=center;verticalAlign=middle;resizable=0;points=[];autosize=1;strokeColor=none;fillColor=none;" parent="1" vertex="1">
          <mxGeometry x="1995" y="1410" width="45" height="45" as="geometry" />
        </mxCell>
        <mxCell id="19Ce7UIDu2drrkDC618h-60" value="" style="endArrow=classic;html=1;rounded=0;strokeWidth=10;entryX=0.308;entryY=0.965;entryDx=0;entryDy=0;entryPerimeter=0;" parent="1" target="19Ce7UIDu2drrkDC618h-55" edge="1">
          <mxGeometry width="50" height="50" relative="1" as="geometry">
            <mxPoint x="1740" y="1359.5" as="sourcePoint" />
            <mxPoint x="1980" y="1360" as="targetPoint" />
          </mxGeometry>
        </mxCell>
        <mxCell id="19Ce7UIDu2drrkDC618h-61" value="" style="endArrow=none;html=1;rounded=0;strokeWidth=10;" parent="1" edge="1">
          <mxGeometry width="50" height="50" relative="1" as="geometry">
            <mxPoint x="1740" y="1364" as="sourcePoint" />
            <mxPoint x="1740" y="1024" as="targetPoint" />
          </mxGeometry>
        </mxCell>
        <mxCell id="19Ce7UIDu2drrkDC618h-62" value="" style="endArrow=none;html=1;rounded=0;strokeWidth=10;" parent="1" edge="1">
          <mxGeometry width="50" height="50" relative="1" as="geometry">
            <mxPoint x="1145" y="1020" as="sourcePoint" />
            <mxPoint x="1745" y="1020" as="targetPoint" />
          </mxGeometry>
        </mxCell>
        <mxCell id="19Ce7UIDu2drrkDC618h-63" value="" style="endArrow=none;html=1;rounded=0;strokeWidth=10;" parent="1" edge="1">
          <mxGeometry width="50" height="50" relative="1" as="geometry">
            <mxPoint x="1141" y="1320" as="sourcePoint" />
            <mxPoint x="1141" y="1014.5" as="targetPoint" />
          </mxGeometry>
        </mxCell>
        <mxCell id="19Ce7UIDu2drrkDC618h-65" value="" style="triangle;whiteSpace=wrap;html=1;direction=north;fillColor=#cce5ff;strokeColor=#36393d;strokeWidth=5;" parent="1" vertex="1">
          <mxGeometry x="1317.5" y="1482" width="35" height="30" as="geometry" />
        </mxCell>
        <mxCell id="19Ce7UIDu2drrkDC618h-66" value="" style="endArrow=classic;html=1;rounded=0;strokeWidth=10;entryX=0.25;entryY=1;entryDx=0;entryDy=0;" parent="1" target="19Ce7UIDu2drrkDC618h-6" edge="1">
          <mxGeometry width="50" height="50" relative="1" as="geometry">
            <mxPoint x="-210" y="1264" as="sourcePoint" />
            <mxPoint x="443" y="1255" as="targetPoint" />
          </mxGeometry>
        </mxCell>
        <mxCell id="19Ce7UIDu2drrkDC618h-67" value="" style="ellipse;whiteSpace=wrap;html=1;direction=south;fillColor=#e3c800;fontColor=#000000;strokeColor=#B09500;" parent="1" vertex="1">
          <mxGeometry x="270" y="1315" width="60" height="195" as="geometry" />
        </mxCell>
        <mxCell id="19Ce7UIDu2drrkDC618h-68" value="&lt;font style=&quot;font-size: 25px;&quot;&gt;0&lt;/font&gt;" style="text;html=1;align=center;verticalAlign=middle;resizable=0;points=[];autosize=1;strokeColor=none;fillColor=none;" parent="1" vertex="1">
          <mxGeometry x="277.5" y="1334.25" width="45" height="45" as="geometry" />
        </mxCell>
        <mxCell id="19Ce7UIDu2drrkDC618h-69" value="&lt;font style=&quot;font-size: 25px;&quot;&gt;1&lt;/font&gt;" style="text;html=1;align=center;verticalAlign=middle;resizable=0;points=[];autosize=1;strokeColor=none;fillColor=none;" parent="1" vertex="1">
          <mxGeometry x="277.5" y="1387.5" width="45" height="45" as="geometry" />
        </mxCell>
        <mxCell id="19Ce7UIDu2drrkDC618h-70" value="" style="endArrow=classic;html=1;rounded=0;strokeWidth=10;entryX=0.338;entryY=1;entryDx=0;entryDy=0;entryPerimeter=0;" parent="1" edge="1">
          <mxGeometry width="50" height="50" relative="1" as="geometry">
            <mxPoint x="330" y="1408.3300000000002" as="sourcePoint" />
            <mxPoint x="540" y="1408.4700000000003" as="targetPoint" />
          </mxGeometry>
        </mxCell>
        <mxCell id="19Ce7UIDu2drrkDC618h-73" value="" style="endArrow=classic;html=1;rounded=0;strokeWidth=10;exitX=1.032;exitY=0.66;exitDx=0;exitDy=0;exitPerimeter=0;" parent="1" target="19Ce7UIDu2drrkDC618h-69" edge="1">
          <mxGeometry width="50" height="50" relative="1" as="geometry">
            <mxPoint x="-204.07999999999993" y="1412.1" as="sourcePoint" />
            <mxPoint x="160" y="1409" as="targetPoint" />
          </mxGeometry>
        </mxCell>
        <mxCell id="19Ce7UIDu2drrkDC618h-74" value="" style="endArrow=classic;html=1;rounded=0;strokeWidth=10;entryX=-0.02;entryY=0.378;entryDx=0;entryDy=0;entryPerimeter=0;" parent="1" target="19Ce7UIDu2drrkDC618h-68" edge="1">
          <mxGeometry width="50" height="50" relative="1" as="geometry">
            <mxPoint x="75" y="1350" as="sourcePoint" />
            <mxPoint x="277.5" y="1357.91" as="targetPoint" />
          </mxGeometry>
        </mxCell>
        <mxCell id="19Ce7UIDu2drrkDC618h-75" value="&lt;font style=&quot;font-size: 45px;&quot;&gt;ALU result&lt;/font&gt;" style="text;html=1;align=center;verticalAlign=middle;resizable=0;points=[];autosize=1;strokeColor=none;fillColor=none;" parent="1" vertex="1">
          <mxGeometry x="1358" y="951" width="240" height="75" as="geometry" />
        </mxCell>
        <mxCell id="19Ce7UIDu2drrkDC618h-76" value="" style="endArrow=none;html=1;rounded=0;strokeWidth=10;" parent="1" edge="1">
          <mxGeometry width="50" height="50" relative="1" as="geometry">
            <mxPoint x="75" y="1354" as="sourcePoint" />
            <mxPoint x="75" y="735" as="targetPoint" />
          </mxGeometry>
        </mxCell>
        <mxCell id="19Ce7UIDu2drrkDC618h-77" value="" style="endArrow=none;html=1;rounded=0;strokeWidth=10;" parent="1" edge="1">
          <mxGeometry width="50" height="50" relative="1" as="geometry">
            <mxPoint x="-263" y="1749" as="sourcePoint" />
            <mxPoint x="2220" y="1749" as="targetPoint" />
          </mxGeometry>
        </mxCell>
        <mxCell id="19Ce7UIDu2drrkDC618h-78" value="" style="endArrow=none;html=1;rounded=0;strokeWidth=10;" parent="1" edge="1">
          <mxGeometry width="50" height="50" relative="1" as="geometry">
            <mxPoint x="2219" y="1755" as="sourcePoint" />
            <mxPoint x="2219" y="1407" as="targetPoint" />
          </mxGeometry>
        </mxCell>
        <mxCell id="19Ce7UIDu2drrkDC618h-79" value="" style="endArrow=none;html=1;rounded=0;strokeWidth=10;exitX=0.544;exitY=0.03;exitDx=0;exitDy=0;exitPerimeter=0;" parent="1" source="19Ce7UIDu2drrkDC618h-55" edge="1">
          <mxGeometry width="50" height="50" relative="1" as="geometry">
            <mxPoint x="2055.25" y="1404.85" as="sourcePoint" />
            <mxPoint x="2224" y="1404.5" as="targetPoint" />
          </mxGeometry>
        </mxCell>
        <mxCell id="19Ce7UIDu2drrkDC618h-84" value="" style="endArrow=classic;html=1;rounded=0;strokeWidth=10;" parent="1" edge="1">
          <mxGeometry width="50" height="50" relative="1" as="geometry">
            <mxPoint x="-268" y="1755" as="sourcePoint" />
            <mxPoint x="-268.34000000000003" y="1556" as="targetPoint" />
          </mxGeometry>
        </mxCell>
        <mxCell id="19Ce7UIDu2drrkDC618h-95" value="&lt;font style=&quot;font-size: 25px;&quot;&gt;2&lt;/font&gt;" style="text;html=1;align=center;verticalAlign=middle;resizable=0;points=[];autosize=1;strokeColor=none;fillColor=none;" parent="1" vertex="1">
          <mxGeometry x="277.5" y="1449.5" width="45" height="45" as="geometry" />
        </mxCell>
        <mxCell id="19Ce7UIDu2drrkDC618h-102" value="" style="endArrow=classic;html=1;rounded=0;exitX=1;exitY=0.5;exitDx=0;exitDy=0;strokeWidth=10;entryX=0;entryY=0.641;entryDx=0;entryDy=0;entryPerimeter=0;" parent="1" target="19Ce7UIDu2drrkDC618h-113" edge="1">
          <mxGeometry width="50" height="50" relative="1" as="geometry">
            <mxPoint x="-278.0000000000009" y="733.5000000000001" as="sourcePoint" />
            <mxPoint x="285" y="734" as="targetPoint" />
          </mxGeometry>
        </mxCell>
        <mxCell id="19Ce7UIDu2drrkDC618h-103" value="" style="endArrow=classic;html=1;rounded=0;strokeWidth=4;entryX=-0.004;entryY=0.521;entryDx=0;entryDy=0;entryPerimeter=0;" parent="1" target="19Ce7UIDu2drrkDC618h-108" edge="1">
          <mxGeometry width="50" height="50" relative="1" as="geometry">
            <mxPoint x="-960" y="736" as="sourcePoint" />
            <mxPoint x="-405" y="735" as="targetPoint" />
            <Array as="points">
              <mxPoint x="-463" y="735" />
            </Array>
          </mxGeometry>
        </mxCell>
        <mxCell id="19Ce7UIDu2drrkDC618h-108" value="&lt;font style=&quot;font-size: 42px;&quot;&gt;Ext&lt;/font&gt;" style="ellipse;whiteSpace=wrap;html=1;fillColor=#fff2cc;strokeColor=#d6b656;" parent="1" vertex="1">
          <mxGeometry x="-420" y="694" width="165" height="80" as="geometry" />
        </mxCell>
        <mxCell id="19Ce7UIDu2drrkDC618h-111" value="&lt;font style=&quot;font-size: 35px;&quot;&gt;imm5&lt;/font&gt;" style="text;html=1;align=center;verticalAlign=middle;resizable=0;points=[];autosize=1;strokeColor=none;fillColor=none;" parent="1" vertex="1">
          <mxGeometry x="-848.5" y="674" width="120" height="60" as="geometry" />
        </mxCell>
        <mxCell id="19Ce7UIDu2drrkDC618h-113" value="&lt;b style=&quot;&quot;&gt;&lt;font style=&quot;font-size: 42px;&quot;&gt;ADD&lt;/font&gt;&lt;br&gt;&lt;/b&gt;" style="whiteSpace=wrap;html=1;aspect=fixed;" parent="1" vertex="1">
          <mxGeometry x="195" y="561" width="270" height="270" as="geometry" />
        </mxCell>
        <mxCell id="19Ce7UIDu2drrkDC618h-125" value="&lt;font size=&quot;1&quot; style=&quot;&quot;&gt;&lt;b style=&quot;font-size: 67px;&quot;&gt;PC&lt;/b&gt;&lt;/font&gt;" style="rounded=0;whiteSpace=wrap;html=1;fillColor=#cdeb8b;strokeColor=#36393d;" parent="1" vertex="1">
          <mxGeometry x="-2595" y="1123.75" width="225" height="392.5" as="geometry" />
        </mxCell>
        <mxCell id="19Ce7UIDu2drrkDC618h-128" value="" style="endArrow=classic;html=1;rounded=0;strokeWidth=7;" parent="1" edge="1">
          <mxGeometry width="50" height="50" relative="1" as="geometry">
            <mxPoint x="-2370" y="1320" as="sourcePoint" />
            <mxPoint x="-1674" y="1320" as="targetPoint" />
          </mxGeometry>
        </mxCell>
        <mxCell id="19Ce7UIDu2drrkDC618h-130" value="&lt;b style=&quot;&quot;&gt;&lt;font style=&quot;font-size: 58px;&quot;&gt;+2&lt;/font&gt;&lt;br&gt;&lt;/b&gt;" style="whiteSpace=wrap;html=1;aspect=fixed;" parent="1" vertex="1">
          <mxGeometry x="-2157" y="797.44" width="150" height="150" as="geometry" />
        </mxCell>
        <mxCell id="19Ce7UIDu2drrkDC618h-131" value="" style="endArrow=classic;html=1;rounded=0;strokeWidth=10;entryX=0.371;entryY=1.028;entryDx=0;entryDy=0;entryPerimeter=0;" parent="1" target="19Ce7UIDu2drrkDC618h-130" edge="1">
          <mxGeometry width="50" height="50" relative="1" as="geometry">
            <mxPoint x="-2101" y="1320" as="sourcePoint" />
            <mxPoint x="-2101" y="1080" as="targetPoint" />
          </mxGeometry>
        </mxCell>
        <mxCell id="19Ce7UIDu2drrkDC618h-132" value="" style="ellipse;whiteSpace=wrap;html=1;direction=south;fillColor=#e3c800;fontColor=#000000;strokeColor=#B09500;" parent="1" vertex="1">
          <mxGeometry x="-2940" y="1200" width="75" height="345" as="geometry" />
        </mxCell>
        <mxCell id="19Ce7UIDu2drrkDC618h-133" value="&lt;font style=&quot;font-size: 30px;&quot;&gt;0&lt;/font&gt;" style="text;html=1;align=center;verticalAlign=middle;resizable=0;points=[];autosize=1;strokeColor=none;fillColor=none;" parent="1" vertex="1">
          <mxGeometry x="-2925" y="1237.5" width="45" height="45" as="geometry" />
        </mxCell>
        <mxCell id="19Ce7UIDu2drrkDC618h-134" value="&lt;font style=&quot;font-size: 30px;&quot;&gt;1&lt;/font&gt;" style="text;html=1;align=center;verticalAlign=middle;resizable=0;points=[];autosize=1;strokeColor=none;fillColor=none;" parent="1" vertex="1">
          <mxGeometry x="-2925" y="1312.5" width="45" height="45" as="geometry" />
        </mxCell>
        <mxCell id="19Ce7UIDu2drrkDC618h-135" value="&lt;font style=&quot;font-size: 30px;&quot;&gt;2&lt;/font&gt;" style="text;html=1;align=center;verticalAlign=middle;resizable=0;points=[];autosize=1;strokeColor=none;fillColor=none;" parent="1" vertex="1">
          <mxGeometry x="-2925" y="1387.5" width="45" height="45" as="geometry" />
        </mxCell>
        <mxCell id="19Ce7UIDu2drrkDC618h-136" value="" style="endArrow=classic;html=1;rounded=0;strokeWidth=7;entryX=0;entryY=0.557;entryDx=0;entryDy=0;entryPerimeter=0;" parent="1" target="19Ce7UIDu2drrkDC618h-125" edge="1">
          <mxGeometry width="50" height="50" relative="1" as="geometry">
            <mxPoint x="-2865" y="1342.5" as="sourcePoint" />
            <mxPoint x="-2610" y="1342.5" as="targetPoint" />
          </mxGeometry>
        </mxCell>
        <mxCell id="19Ce7UIDu2drrkDC618h-154" style="edgeStyle=orthogonalEdgeStyle;rounded=0;orthogonalLoop=1;jettySize=auto;html=1;exitX=0;exitY=1;exitDx=0;exitDy=0;strokeWidth=10;" parent="1" source="19Ce7UIDu2drrkDC618h-140" target="19Ce7UIDu2drrkDC618h-132" edge="1">
          <mxGeometry relative="1" as="geometry">
            <mxPoint x="-3000" y="1260" as="targetPoint" />
            <Array as="points">
              <mxPoint x="-3235" y="1260" />
            </Array>
          </mxGeometry>
        </mxCell>
        <mxCell id="19Ce7UIDu2drrkDC618h-140" value="" style="shape=partialRectangle;whiteSpace=wrap;html=1;bottom=0;right=0;fillColor=none;strokeWidth=10;" parent="1" vertex="1">
          <mxGeometry x="-3235" y="602.5" width="1095" height="300" as="geometry" />
        </mxCell>
        <mxCell id="19Ce7UIDu2drrkDC618h-143" value="" style="endArrow=none;html=1;rounded=0;strokeWidth=10;exitX=0.5;exitY=0;exitDx=0;exitDy=0;" parent="1" source="19Ce7UIDu2drrkDC618h-130" edge="1">
          <mxGeometry width="50" height="50" relative="1" as="geometry">
            <mxPoint x="-2100" y="786" as="sourcePoint" />
            <mxPoint x="-2085" y="606" as="targetPoint" />
          </mxGeometry>
        </mxCell>
        <mxCell id="19Ce7UIDu2drrkDC618h-144" value="" style="shape=partialRectangle;whiteSpace=wrap;html=1;bottom=0;right=0;fillColor=none;strokeWidth=10;" parent="1" vertex="1">
          <mxGeometry x="-3615" y="240" width="4125" height="248" as="geometry" />
        </mxCell>
        <mxCell id="19Ce7UIDu2drrkDC618h-146" value="" style="edgeStyle=elbowEdgeStyle;elbow=horizontal;endArrow=classic;html=1;curved=0;rounded=0;endSize=8;startSize=8;exitX=0;exitY=1;exitDx=0;exitDy=0;strokeWidth=10;" parent="1" edge="1">
          <mxGeometry width="50" height="50" relative="1" as="geometry">
            <mxPoint x="-3615" y="417.99999999999955" as="sourcePoint" />
            <mxPoint x="-2940" y="1417" as="targetPoint" />
            <Array as="points">
              <mxPoint x="-3615" y="922" />
            </Array>
          </mxGeometry>
        </mxCell>
        <mxCell id="19Ce7UIDu2drrkDC618h-148" value="" style="endArrow=none;html=1;rounded=0;entryX=1;entryY=0;entryDx=0;entryDy=0;strokeWidth=10;" parent="1" edge="1">
          <mxGeometry width="50" height="50" relative="1" as="geometry">
            <mxPoint x="510" y="692" as="sourcePoint" />
            <mxPoint x="510" y="244" as="targetPoint" />
          </mxGeometry>
        </mxCell>
        <mxCell id="19Ce7UIDu2drrkDC618h-150" value="" style="endArrow=classic;html=1;rounded=0;strokeWidth=10;exitX=1;exitY=0;exitDx=0;exitDy=0;entryX=-0.007;entryY=0.156;entryDx=0;entryDy=0;entryPerimeter=0;" parent="1" target="19Ce7UIDu2drrkDC618h-113" edge="1">
          <mxGeometry width="50" height="50" relative="1" as="geometry">
            <mxPoint x="-2145" y="602" as="sourcePoint" />
            <mxPoint x="195" y="615" as="targetPoint" />
          </mxGeometry>
        </mxCell>
        <mxCell id="19Ce7UIDu2drrkDC618h-155" value="" style="endArrow=none;html=1;rounded=0;exitX=1;exitY=0.5;exitDx=0;exitDy=0;strokeWidth=10;" parent="1" source="19Ce7UIDu2drrkDC618h-113" edge="1">
          <mxGeometry width="50" height="50" relative="1" as="geometry">
            <mxPoint x="470" y="696" as="sourcePoint" />
            <mxPoint x="515" y="696" as="targetPoint" />
          </mxGeometry>
        </mxCell>
        <mxCell id="19Ce7UIDu2drrkDC618h-156" value="&lt;font style=&quot;font-size: 50px;&quot;&gt;Next PC Address&lt;/font&gt;" style="text;strokeColor=none;fillColor=none;html=1;fontSize=24;fontStyle=1;verticalAlign=middle;align=center;" parent="1" vertex="1">
          <mxGeometry x="-2584" y="539" width="105" height="45" as="geometry" />
        </mxCell>
        <mxCell id="19Ce7UIDu2drrkDC618h-160" value="" style="endArrow=none;html=1;rounded=0;strokeWidth=10;" parent="1" edge="1">
          <mxGeometry width="50" height="50" relative="1" as="geometry">
            <mxPoint x="-3405" y="451" as="sourcePoint" />
            <mxPoint x="-960" y="465" as="targetPoint" />
          </mxGeometry>
        </mxCell>
        <mxCell id="19Ce7UIDu2drrkDC618h-161" style="edgeStyle=orthogonalEdgeStyle;rounded=0;orthogonalLoop=1;jettySize=auto;html=1;strokeWidth=10;entryX=0.5;entryY=1;entryDx=0;entryDy=0;strokeColor=#000000;" parent="1" edge="1">
          <mxGeometry relative="1" as="geometry">
            <mxPoint x="-3405" y="451" as="sourcePoint" />
            <mxPoint x="-2940.000000000002" y="1326" as="targetPoint" />
            <Array as="points">
              <mxPoint x="-3420" y="451" />
              <mxPoint x="-3420" y="1326" />
            </Array>
          </mxGeometry>
        </mxCell>
        <mxCell id="19Ce7UIDu2drrkDC618h-163" value="&lt;font style=&quot;font-size: 45px;&quot;&gt;Jump Target =PC[15:12] || Imm 12&lt;/font&gt;" style="text;strokeColor=none;fillColor=none;html=1;fontSize=24;fontStyle=1;verticalAlign=middle;align=center;" parent="1" vertex="1">
          <mxGeometry x="-2584" y="390" width="100" height="40" as="geometry" />
        </mxCell>
        <mxCell id="19Ce7UIDu2drrkDC618h-165" value="" style="edgeStyle=elbowEdgeStyle;elbow=horizontal;endArrow=classic;html=1;curved=0;rounded=0;endSize=8;startSize=8;strokeWidth=10;" parent="1" target="lKXgJurtdIhqgQwa-Es6-2" edge="1">
          <mxGeometry width="50" height="50" relative="1" as="geometry">
            <mxPoint x="180" y="1530" as="sourcePoint" />
            <mxPoint x="1095" y="1433" as="targetPoint" />
            <Array as="points">
              <mxPoint x="1035" y="1470" />
            </Array>
          </mxGeometry>
        </mxCell>
        <mxCell id="19Ce7UIDu2drrkDC618h-167" value="" style="endArrow=none;html=1;rounded=0;strokeWidth=10;" parent="1" edge="1">
          <mxGeometry width="50" height="50" relative="1" as="geometry">
            <mxPoint x="180" y="1535" as="sourcePoint" />
            <mxPoint x="180" y="1415" as="targetPoint" />
          </mxGeometry>
        </mxCell>
        <mxCell id="19Ce7UIDu2drrkDC618h-168" value="&lt;font style=&quot;font-size: 45px;&quot;&gt;Branch Target Address&lt;/font&gt;" style="text;strokeColor=none;fillColor=none;html=1;fontSize=24;fontStyle=1;verticalAlign=middle;align=center;" parent="1" vertex="1">
          <mxGeometry x="-2055" y="180" width="100" height="40" as="geometry" />
        </mxCell>
        <mxCell id="y26U6vpPyubgtOYYSPC3-1" value="" style="endArrow=classic;html=1;rounded=0;strokeWidth=5;strokeColor=#ff0000;" parent="1" edge="1">
          <mxGeometry width="50" height="50" relative="1" as="geometry">
            <mxPoint x="570" y="1192" as="sourcePoint" />
            <mxPoint x="572" y="1018" as="targetPoint" />
          </mxGeometry>
        </mxCell>
        <mxCell id="y26U6vpPyubgtOYYSPC3-2" value="" style="endArrow=classic;html=1;rounded=0;strokeWidth=5;strokeColor=#ff0000;" parent="1" edge="1">
          <mxGeometry width="50" height="50" relative="1" as="geometry">
            <mxPoint x="651" y="1219" as="sourcePoint" />
            <mxPoint x="650.71" y="1036.5" as="targetPoint" />
          </mxGeometry>
        </mxCell>
        <mxCell id="y26U6vpPyubgtOYYSPC3-3" value="" style="endArrow=classic;html=1;rounded=0;strokeWidth=5;strokeColor=#ff0000;" parent="1" edge="1">
          <mxGeometry width="50" height="50" relative="1" as="geometry">
            <mxPoint x="799" y="1249" as="sourcePoint" />
            <mxPoint x="796" y="1140" as="targetPoint" />
          </mxGeometry>
        </mxCell>
        <mxCell id="y26U6vpPyubgtOYYSPC3-4" value="&lt;font color=&quot;#ff0000&quot; style=&quot;font-size: 30px;&quot;&gt;Zero&lt;/font&gt;" style="text;html=1;strokeColor=none;fillColor=none;align=center;verticalAlign=middle;whiteSpace=wrap;rounded=0;" parent="1" vertex="1">
          <mxGeometry x="544" y="960" width="60" height="30" as="geometry" />
        </mxCell>
        <mxCell id="y26U6vpPyubgtOYYSPC3-5" value="&lt;font color=&quot;#ff0a0a&quot; style=&quot;font-size: 30px;&quot;&gt;Negative&lt;/font&gt;" style="text;html=1;strokeColor=none;fillColor=none;align=center;verticalAlign=middle;whiteSpace=wrap;rounded=0;" parent="1" vertex="1">
          <mxGeometry x="638.5" y="996" width="60" height="30" as="geometry" />
        </mxCell>
        <mxCell id="y26U6vpPyubgtOYYSPC3-6" value="&lt;font color=&quot;#ff0800&quot; style=&quot;font-size: 30px;&quot;&gt;Carry&lt;/font&gt;" style="text;html=1;strokeColor=none;fillColor=none;align=center;verticalAlign=middle;whiteSpace=wrap;rounded=0;" parent="1" vertex="1">
          <mxGeometry x="773" y="1100" width="60" height="30" as="geometry" />
        </mxCell>
        <mxCell id="y26U6vpPyubgtOYYSPC3-8" value="&lt;font color=&quot;#ff0000&quot; style=&quot;font-size: 35px;&quot;&gt;OP&lt;/font&gt;" style="text;html=1;align=center;verticalAlign=middle;resizable=0;points=[];autosize=1;strokeColor=none;fillColor=none;" parent="1" vertex="1">
          <mxGeometry x="-924.5" y="2160" width="75" height="60" as="geometry" />
        </mxCell>
        <mxCell id="y26U6vpPyubgtOYYSPC3-10" value="&lt;font color=&quot;#ff0000&quot; style=&quot;font-size: 35px;&quot;&gt;m&lt;/font&gt;" style="text;html=1;align=center;verticalAlign=middle;resizable=0;points=[];autosize=1;strokeColor=none;fillColor=none;" parent="1" vertex="1">
          <mxGeometry x="-495" y="1725" width="60" height="60" as="geometry" />
        </mxCell>
        <mxCell id="y26U6vpPyubgtOYYSPC3-12" value="&lt;font color=&quot;#ff230a&quot; style=&quot;font-size: 35px;&quot;&gt;opcode&lt;/font&gt;" style="text;html=1;align=center;verticalAlign=middle;resizable=0;points=[];autosize=1;strokeColor=none;fillColor=none;" parent="1" vertex="1">
          <mxGeometry x="-1115" y="2414" width="150" height="60" as="geometry" />
        </mxCell>
        <mxCell id="y26U6vpPyubgtOYYSPC3-13" value="" style="triangle;whiteSpace=wrap;html=1;direction=north;fillColor=#60a917;fontColor=#ffffff;strokeColor=#2D7600;strokeWidth=5;" parent="1" vertex="1">
          <mxGeometry x="-571" y="1526" width="35" height="30" as="geometry" />
        </mxCell>
        <mxCell id="y26U6vpPyubgtOYYSPC3-14" value="" style="triangle;whiteSpace=wrap;html=1;direction=north;fillColor=#cdeb8b;strokeColor=#36393d;strokeWidth=5;" parent="1" vertex="1">
          <mxGeometry x="-2570" y="1485" width="35" height="30" as="geometry" />
        </mxCell>
        <mxCell id="y26U6vpPyubgtOYYSPC3-17" value="" style="endArrow=none;html=1;rounded=0;strokeWidth=3;" parent="1" edge="1">
          <mxGeometry width="50" height="50" relative="1" as="geometry">
            <mxPoint x="-2578" y="1920" as="sourcePoint" />
            <mxPoint x="1338" y="1920" as="targetPoint" />
          </mxGeometry>
        </mxCell>
        <mxCell id="y26U6vpPyubgtOYYSPC3-18" value="" style="endArrow=none;html=1;rounded=0;entryX=0;entryY=0.5;entryDx=0;entryDy=0;strokeWidth=2;" parent="1" edge="1">
          <mxGeometry width="50" height="50" relative="1" as="geometry">
            <mxPoint x="-2549" y="1920" as="sourcePoint" />
            <mxPoint x="-2551.5" y="1516" as="targetPoint" />
          </mxGeometry>
        </mxCell>
        <mxCell id="y26U6vpPyubgtOYYSPC3-19" value="" style="endArrow=none;html=1;rounded=0;strokeWidth=2;entryX=0;entryY=0.5;entryDx=0;entryDy=0;" parent="1" edge="1">
          <mxGeometry width="50" height="50" relative="1" as="geometry">
            <mxPoint x="1337" y="1919" as="sourcePoint" />
            <mxPoint x="1335" y="1514" as="targetPoint" />
          </mxGeometry>
        </mxCell>
        <mxCell id="y26U6vpPyubgtOYYSPC3-20" value="" style="endArrow=none;html=1;rounded=0;strokeWidth=2;" parent="1" edge="1">
          <mxGeometry width="50" height="50" relative="1" as="geometry">
            <mxPoint x="-553" y="1920" as="sourcePoint" />
            <mxPoint x="-553" y="1560" as="targetPoint" />
          </mxGeometry>
        </mxCell>
        <mxCell id="y26U6vpPyubgtOYYSPC3-21" value="&lt;font style=&quot;font-size: 45px;&quot;&gt;clk&lt;/font&gt;" style="text;html=1;align=center;verticalAlign=middle;resizable=0;points=[];autosize=1;strokeColor=none;fillColor=none;" parent="1" vertex="1">
          <mxGeometry x="-2514" y="1836" width="90" height="75" as="geometry" />
        </mxCell>
        <mxCell id="y26U6vpPyubgtOYYSPC3-22" value="&lt;font style=&quot;font-size: 50px;&quot;&gt;Main&lt;br&gt;Control&lt;br&gt;&lt;/font&gt;" style="ellipse;whiteSpace=wrap;html=1;aspect=fixed;fillColor=#f8cecc;strokeColor=#b85450;strokeWidth=7;" parent="1" vertex="1">
          <mxGeometry x="-660" y="2594" width="465" height="465" as="geometry" />
        </mxCell>
        <mxCell id="ufcpOCT58Zz2orjDVy-H-1" value="" style="ellipse;whiteSpace=wrap;html=1;direction=south;fillColor=#e3c800;fontColor=#000000;strokeColor=#B09500;" parent="1" vertex="1">
          <mxGeometry x="-771" y="1276.5" width="60" height="150" as="geometry" />
        </mxCell>
        <mxCell id="ufcpOCT58Zz2orjDVy-H-2" value="&lt;font style=&quot;font-size: 25px;&quot;&gt;0&lt;/font&gt;" style="text;html=1;align=center;verticalAlign=middle;resizable=0;points=[];autosize=1;strokeColor=none;fillColor=none;" parent="1" vertex="1">
          <mxGeometry x="-767.5" y="1296.25" width="45" height="45" as="geometry" />
        </mxCell>
        <mxCell id="ufcpOCT58Zz2orjDVy-H-3" value="&lt;font style=&quot;font-size: 25px;&quot;&gt;1&lt;/font&gt;" style="text;html=1;align=center;verticalAlign=middle;resizable=0;points=[];autosize=1;strokeColor=none;fillColor=none;" parent="1" vertex="1">
          <mxGeometry x="-768" y="1356.25" width="45" height="45" as="geometry" />
        </mxCell>
        <mxCell id="ufcpOCT58Zz2orjDVy-H-7" value="" style="edgeStyle=elbowEdgeStyle;elbow=horizontal;endArrow=classic;html=1;curved=0;rounded=0;endSize=8;startSize=8;strokeWidth=4;entryX=0.645;entryY=0.967;entryDx=0;entryDy=0;entryPerimeter=0;" parent="1" target="ufcpOCT58Zz2orjDVy-H-1" edge="1">
          <mxGeometry width="50" height="50" relative="1" as="geometry">
            <mxPoint x="-817.5" y="1442" as="sourcePoint" />
            <mxPoint x="-777.5" y="1377" as="targetPoint" />
            <Array as="points">
              <mxPoint x="-817.5" y="1412" />
            </Array>
          </mxGeometry>
        </mxCell>
        <mxCell id="ufcpOCT58Zz2orjDVy-H-8" value="" style="endArrow=classic;html=1;rounded=0;strokeWidth=4;entryX=-0.003;entryY=0.443;entryDx=0;entryDy=0;entryPerimeter=0;exitX=0.29;exitY=0.051;exitDx=0;exitDy=0;exitPerimeter=0;" parent="1" source="ufcpOCT58Zz2orjDVy-H-1" target="19Ce7UIDu2drrkDC618h-11" edge="1">
          <mxGeometry width="50" height="50" relative="1" as="geometry">
            <mxPoint x="-555" y="1318" as="sourcePoint" />
            <mxPoint x="-455" y="1319.2971875000003" as="targetPoint" />
          </mxGeometry>
        </mxCell>
        <mxCell id="ufcpOCT58Zz2orjDVy-H-11" value="" style="endArrow=classic;html=1;rounded=0;strokeWidth=4;strokeColor=#ff0000;entryX=1;entryY=0.5;entryDx=0;entryDy=0;" parent="1" source="ufcpOCT58Zz2orjDVy-H-18" target="19Ce7UIDu2drrkDC618h-132" edge="1">
          <mxGeometry width="50" height="50" relative="1" as="geometry">
            <mxPoint x="-2903" y="1906" as="sourcePoint" />
            <mxPoint x="-2903" y="1471" as="targetPoint" />
          </mxGeometry>
        </mxCell>
        <mxCell id="ufcpOCT58Zz2orjDVy-H-17" value="&lt;font color=&quot;#ff0d0d&quot; style=&quot;font-size: 35px;&quot;&gt;PCSrc&lt;/font&gt;" style="edgeLabel;html=1;align=center;verticalAlign=middle;resizable=0;points=[];" parent="ufcpOCT58Zz2orjDVy-H-11" connectable="0" vertex="1">
          <mxGeometry x="0.515" relative="1" as="geometry">
            <mxPoint as="offset" />
          </mxGeometry>
        </mxCell>
        <mxCell id="ufcpOCT58Zz2orjDVy-H-12" value="" style="endArrow=classic;html=1;rounded=0;strokeWidth=4;strokeColor=#ff0000;" parent="1" edge="1">
          <mxGeometry width="50" height="50" relative="1" as="geometry">
            <mxPoint x="-347.9800000000001" y="484" as="sourcePoint" />
            <mxPoint x="-347.9800000000001" y="694" as="targetPoint" />
          </mxGeometry>
        </mxCell>
        <mxCell id="ufcpOCT58Zz2orjDVy-H-13" value="&lt;font color=&quot;#ff0000&quot; style=&quot;font-size: 35px;&quot;&gt;ExtOp&lt;/font&gt;" style="text;html=1;align=center;verticalAlign=middle;resizable=0;points=[];autosize=1;strokeColor=none;fillColor=none;" parent="1" vertex="1">
          <mxGeometry x="-413" y="428" width="135" height="60" as="geometry" />
        </mxCell>
        <mxCell id="ufcpOCT58Zz2orjDVy-H-18" value="&lt;font style=&quot;font-size: 50px;&quot;&gt;PC&lt;br&gt;Ctrl&lt;br&gt;&lt;/font&gt;" style="ellipse;whiteSpace=wrap;html=1;aspect=fixed;fillColor=#f8cecc;strokeColor=#b85450;strokeWidth=7;" parent="1" vertex="1">
          <mxGeometry x="-3030" y="2355" width="255" height="255" as="geometry" />
        </mxCell>
        <mxCell id="ufcpOCT58Zz2orjDVy-H-20" value="" style="edgeStyle=elbowEdgeStyle;elbow=horizontal;endArrow=classic;html=1;curved=0;rounded=0;endSize=8;startSize=8;strokeWidth=10;strokeColor=#ff0000;entryX=0;entryY=0.477;entryDx=0;entryDy=0;entryPerimeter=0;" parent="1" target="y26U6vpPyubgtOYYSPC3-22" edge="1">
          <mxGeometry width="50" height="50" relative="1" as="geometry">
            <mxPoint x="-960" y="1970" as="sourcePoint" />
            <mxPoint x="-810" y="2820" as="targetPoint" />
            <Array as="points">
              <mxPoint x="-960" y="2390" />
            </Array>
          </mxGeometry>
        </mxCell>
        <mxCell id="ufcpOCT58Zz2orjDVy-H-21" value="" style="endArrow=classic;html=1;rounded=0;strokeWidth=4;strokeColor=#ff0000;" parent="1" edge="1">
          <mxGeometry width="50" height="50" relative="1" as="geometry">
            <mxPoint x="-2902" y="2864" as="sourcePoint" />
            <mxPoint x="-2902.5" y="2609" as="targetPoint" />
          </mxGeometry>
        </mxCell>
        <mxCell id="ufcpOCT58Zz2orjDVy-H-22" value="&lt;font style=&quot;font-size: 35px;&quot; color=&quot;#ff1605&quot;&gt;Zero&lt;/font&gt;" style="text;html=1;align=center;verticalAlign=middle;resizable=0;points=[];autosize=1;strokeColor=none;fillColor=none;" parent="1" vertex="1">
          <mxGeometry x="-2942" y="2863" width="105" height="60" as="geometry" />
        </mxCell>
        <mxCell id="ufcpOCT58Zz2orjDVy-H-23" value="" style="endArrow=classic;html=1;rounded=0;entryX=0.993;entryY=0.398;entryDx=0;entryDy=0;strokeWidth=7;entryPerimeter=0;strokeColor=#FF0303;" parent="1" edge="1">
          <mxGeometry width="50" height="50" relative="1" as="geometry">
            <mxPoint x="-958" y="2500" as="sourcePoint" />
            <mxPoint x="-2774.785" y="2500.49" as="targetPoint" />
          </mxGeometry>
        </mxCell>
        <mxCell id="ufcpOCT58Zz2orjDVy-H-25" value="" style="endArrow=none;html=1;rounded=0;strokeWidth=10;strokeColor=#ff0000;exitX=1;exitY=0.5;exitDx=0;exitDy=0;" parent="1" source="y26U6vpPyubgtOYYSPC3-22" edge="1">
          <mxGeometry width="50" height="50" relative="1" as="geometry">
            <mxPoint x="-150" y="2813" as="sourcePoint" />
            <mxPoint x="2018" y="2805" as="targetPoint" />
          </mxGeometry>
        </mxCell>
        <mxCell id="ufcpOCT58Zz2orjDVy-H-26" value="" style="endArrow=classic;html=1;rounded=0;strokeWidth=4;strokeColor=#ff0000;entryX=1;entryY=0.5;entryDx=0;entryDy=0;" parent="1" target="19Ce7UIDu2drrkDC618h-55" edge="1">
          <mxGeometry width="50" height="50" relative="1" as="geometry">
            <mxPoint x="2016.5" y="2804" as="sourcePoint" />
            <mxPoint x="2015.5" y="1920" as="targetPoint" />
          </mxGeometry>
        </mxCell>
        <mxCell id="ufcpOCT58Zz2orjDVy-H-27" value="&lt;font color=&quot;#ff0d0d&quot; style=&quot;font-size: 35px;&quot;&gt;WBdata&lt;/font&gt;" style="edgeLabel;html=1;align=center;verticalAlign=middle;resizable=0;points=[];" parent="ufcpOCT58Zz2orjDVy-H-26" connectable="0" vertex="1">
          <mxGeometry x="0.515" relative="1" as="geometry">
            <mxPoint as="offset" />
          </mxGeometry>
        </mxCell>
        <mxCell id="ufcpOCT58Zz2orjDVy-H-28" value="" style="endArrow=classic;html=1;rounded=0;strokeWidth=4;strokeColor=#ff0000;entryX=0.83;entryY=1.003;entryDx=0;entryDy=0;entryPerimeter=0;" parent="1" edge="1">
          <mxGeometry width="50" height="50" relative="1" as="geometry">
            <mxPoint x="1577.83" y="2801" as="sourcePoint" />
            <mxPoint x="1585.755" y="1513.1954999999998" as="targetPoint" />
          </mxGeometry>
        </mxCell>
        <mxCell id="ufcpOCT58Zz2orjDVy-H-29" value="&lt;font color=&quot;#ff0d0d&quot; style=&quot;font-size: 35px;&quot;&gt;MemWr&lt;/font&gt;" style="edgeLabel;html=1;align=center;verticalAlign=middle;resizable=0;points=[];" parent="ufcpOCT58Zz2orjDVy-H-28" connectable="0" vertex="1">
          <mxGeometry x="0.515" relative="1" as="geometry">
            <mxPoint x="-5" y="420" as="offset" />
          </mxGeometry>
        </mxCell>
        <mxCell id="ufcpOCT58Zz2orjDVy-H-30" value="" style="endArrow=classic;html=1;rounded=0;strokeWidth=4;strokeColor=#ff0000;entryX=0.228;entryY=1.001;entryDx=0;entryDy=0;entryPerimeter=0;" parent="1" edge="1">
          <mxGeometry width="50" height="50" relative="1" as="geometry">
            <mxPoint x="1443" y="2803" as="sourcePoint" />
            <mxPoint x="1443.8580000000002" y="1515.3985000000002" as="targetPoint" />
          </mxGeometry>
        </mxCell>
        <mxCell id="ufcpOCT58Zz2orjDVy-H-31" value="&lt;font color=&quot;#ff0d0d&quot; style=&quot;font-size: 35px;&quot;&gt;MemRd&lt;/font&gt;" style="edgeLabel;html=1;align=center;verticalAlign=middle;resizable=0;points=[];" parent="ufcpOCT58Zz2orjDVy-H-30" connectable="0" vertex="1">
          <mxGeometry x="0.515" relative="1" as="geometry">
            <mxPoint x="-4" y="289" as="offset" />
          </mxGeometry>
        </mxCell>
        <mxCell id="ufcpOCT58Zz2orjDVy-H-32" value="" style="endArrow=classic;html=1;rounded=0;strokeWidth=4;strokeColor=#ff0000;entryX=0.83;entryY=1.003;entryDx=0;entryDy=0;entryPerimeter=0;" parent="1" edge="1">
          <mxGeometry width="50" height="50" relative="1" as="geometry">
            <mxPoint x="-750" y="2703" as="sourcePoint" />
            <mxPoint x="-741.41" y="1428.5" as="targetPoint" />
            <Array as="points">
              <mxPoint x="-750" y="2070" />
            </Array>
          </mxGeometry>
        </mxCell>
        <mxCell id="ufcpOCT58Zz2orjDVy-H-33" value="&lt;font color=&quot;#ff0d0d&quot; style=&quot;font-size: 35px;&quot;&gt;RegSrc&lt;/font&gt;" style="edgeLabel;html=1;align=center;verticalAlign=middle;resizable=0;points=[];" parent="ufcpOCT58Zz2orjDVy-H-32" connectable="0" vertex="1">
          <mxGeometry x="0.515" relative="1" as="geometry">
            <mxPoint x="-12" y="-26" as="offset" />
          </mxGeometry>
        </mxCell>
        <mxCell id="ufcpOCT58Zz2orjDVy-H-34" value="" style="endArrow=classic;html=1;rounded=0;strokeWidth=4;strokeColor=#ff0000;" parent="1" edge="1">
          <mxGeometry width="50" height="50" relative="1" as="geometry">
            <mxPoint x="-367" y="2610" as="sourcePoint" />
            <mxPoint x="-367" y="1560" as="targetPoint" />
          </mxGeometry>
        </mxCell>
        <mxCell id="ufcpOCT58Zz2orjDVy-H-35" value="&lt;font color=&quot;#ff0d0d&quot; style=&quot;font-size: 35px;&quot;&gt;RegWr&lt;/font&gt;" style="edgeLabel;html=1;align=center;verticalAlign=middle;resizable=0;points=[];" parent="ufcpOCT58Zz2orjDVy-H-34" connectable="0" vertex="1">
          <mxGeometry x="0.515" relative="1" as="geometry">
            <mxPoint x="7" y="30" as="offset" />
          </mxGeometry>
        </mxCell>
        <mxCell id="ufcpOCT58Zz2orjDVy-H-36" value="" style="edgeLabel;html=1;align=center;verticalAlign=middle;resizable=0;points=[];" parent="ufcpOCT58Zz2orjDVy-H-34" connectable="0" vertex="1">
          <mxGeometry x="0.4745" y="1" relative="1" as="geometry">
            <mxPoint x="-79" y="1" as="offset" />
          </mxGeometry>
        </mxCell>
        <mxCell id="ufcpOCT58Zz2orjDVy-H-39" value="" style="endArrow=classic;html=1;rounded=0;strokeWidth=7;strokeColor=#FF0303;" parent="1" edge="1">
          <mxGeometry width="50" height="50" relative="1" as="geometry">
            <mxPoint x="-960" y="2500" as="sourcePoint" />
            <mxPoint x="544.0002687948727" y="2499.7618064295793" as="targetPoint" />
          </mxGeometry>
        </mxCell>
        <mxCell id="ufcpOCT58Zz2orjDVy-H-38" value="&lt;font style=&quot;font-size: 50px;&quot;&gt;ِALU&lt;br&gt;Ctrl&lt;br&gt;&lt;/font&gt;" style="ellipse;whiteSpace=wrap;html=1;aspect=fixed;fillColor=#f8cecc;strokeColor=#b85450;strokeWidth=7;" parent="1" vertex="1">
          <mxGeometry x="540" y="2325" width="255" height="255" as="geometry" />
        </mxCell>
        <mxCell id="ufcpOCT58Zz2orjDVy-H-40" value="" style="endArrow=classic;html=1;rounded=0;strokeWidth=4;strokeColor=#ff0000;exitX=0.47;exitY=-0.02;exitDx=0;exitDy=0;exitPerimeter=0;" parent="1" source="ufcpOCT58Zz2orjDVy-H-38" edge="1">
          <mxGeometry width="50" height="50" relative="1" as="geometry">
            <mxPoint x="660" y="2310" as="sourcePoint" />
            <mxPoint x="660" y="1469" as="targetPoint" />
          </mxGeometry>
        </mxCell>
        <mxCell id="ufcpOCT58Zz2orjDVy-H-41" value="&lt;font color=&quot;#ff0d0d&quot; style=&quot;font-size: 35px;&quot;&gt;ALUOp&lt;/font&gt;" style="edgeLabel;html=1;align=center;verticalAlign=middle;resizable=0;points=[];" parent="ufcpOCT58Zz2orjDVy-H-40" connectable="0" vertex="1">
          <mxGeometry x="0.515" relative="1" as="geometry">
            <mxPoint y="395" as="offset" />
          </mxGeometry>
        </mxCell>
        <mxCell id="ufcpOCT58Zz2orjDVy-H-42" value="" style="edgeLabel;html=1;align=center;verticalAlign=middle;resizable=0;points=[];" parent="ufcpOCT58Zz2orjDVy-H-40" connectable="0" vertex="1">
          <mxGeometry x="0.4745" y="1" relative="1" as="geometry">
            <mxPoint y="1" as="offset" />
          </mxGeometry>
        </mxCell>
        <mxCell id="ufcpOCT58Zz2orjDVy-H-43" value="" style="endArrow=classic;html=1;rounded=0;strokeWidth=4;strokeColor=#ff0000;exitX=0.47;exitY=-0.02;exitDx=0;exitDy=0;exitPerimeter=0;entryX=1;entryY=0.5;entryDx=0;entryDy=0;" parent="1" target="19Ce7UIDu2drrkDC618h-67" edge="1">
          <mxGeometry width="50" height="50" relative="1" as="geometry">
            <mxPoint x="298.57" y="2825.5" as="sourcePoint" />
            <mxPoint x="298.57" y="1974.5" as="targetPoint" />
          </mxGeometry>
        </mxCell>
        <mxCell id="ufcpOCT58Zz2orjDVy-H-44" value="&lt;font color=&quot;#ff0d0d&quot; style=&quot;font-size: 35px;&quot;&gt;ALUSrc&lt;/font&gt;" style="edgeLabel;html=1;align=center;verticalAlign=middle;resizable=0;points=[];" parent="ufcpOCT58Zz2orjDVy-H-43" connectable="0" vertex="1">
          <mxGeometry x="0.515" relative="1" as="geometry">
            <mxPoint y="287" as="offset" />
          </mxGeometry>
        </mxCell>
        <mxCell id="ufcpOCT58Zz2orjDVy-H-45" value="" style="edgeLabel;html=1;align=center;verticalAlign=middle;resizable=0;points=[];" parent="ufcpOCT58Zz2orjDVy-H-43" connectable="0" vertex="1">
          <mxGeometry x="0.4745" y="1" relative="1" as="geometry">
            <mxPoint y="1" as="offset" />
          </mxGeometry>
        </mxCell>
        <mxCell id="ufcpOCT58Zz2orjDVy-H-50" value="" style="edgeStyle=elbowEdgeStyle;elbow=horizontal;endArrow=classic;html=1;curved=0;rounded=0;endSize=8;startSize=8;entryX=0;entryY=0;entryDx=0;entryDy=0;strokeWidth=7;strokeColor=#FF0000;" parent="1" edge="1">
          <mxGeometry width="50" height="50" relative="1" as="geometry">
            <mxPoint x="-960" y="2239" as="sourcePoint" />
            <mxPoint x="552.3438853987063" y="2401.343885398706" as="targetPoint" />
            <Array as="points">
              <mxPoint y="2310" />
            </Array>
          </mxGeometry>
        </mxCell>
        <mxCell id="ufcpOCT58Zz2orjDVy-H-51" value="" style="edgeStyle=orthogonalEdgeStyle;elbow=horizontal;endArrow=classic;html=1;rounded=0;endSize=8;startSize=8;strokeWidth=7;strokeColor=#FF0000;entryX=0.438;entryY=1.002;entryDx=0;entryDy=0;entryPerimeter=0;shadow=0;" parent="1" target="19Ce7UIDu2drrkDC618h-11" edge="1">
          <mxGeometry width="50" height="50" relative="1" as="geometry">
            <mxPoint x="-965" y="2040" as="sourcePoint" />
            <mxPoint x="30" y="2040" as="targetPoint" />
          </mxGeometry>
        </mxCell>
        <mxCell id="Npa2v57b0XEXWXxWv6Mb-14" value="" style="endArrow=none;html=1;rounded=0;entryX=0.074;entryY=0.227;entryDx=0;entryDy=0;entryPerimeter=0;strokeWidth=4;strokeColor=#ff0000;" parent="1" edge="1">
          <mxGeometry width="50" height="50" relative="1" as="geometry">
            <mxPoint x="-654.47" y="2701" as="sourcePoint" />
            <mxPoint x="-625.5900000000001" y="2700.555" as="targetPoint" />
            <Array as="points">
              <mxPoint x="-750" y="2701" />
              <mxPoint x="-654.47" y="2701" />
            </Array>
          </mxGeometry>
        </mxCell>
        <mxCell id="Npa2v57b0XEXWXxWv6Mb-15" value="&lt;font style=&quot;font-size: 30px;&quot;&gt;3&lt;/font&gt;" style="text;html=1;align=center;verticalAlign=middle;resizable=0;points=[];autosize=1;strokeColor=none;fillColor=none;" parent="1" vertex="1">
          <mxGeometry x="-2925" y="1463.5" width="45" height="45" as="geometry" />
        </mxCell>
        <mxCell id="nJdUsmHLHT1U4WWe08nF-1" value="" style="endArrow=classic;html=1;rounded=0;strokeWidth=5;strokeColor=#ff0000;" parent="1" edge="1">
          <mxGeometry width="50" height="50" relative="1" as="geometry">
            <mxPoint x="724" y="1230" as="sourcePoint" />
            <mxPoint x="723.71" y="1073.5" as="targetPoint" />
          </mxGeometry>
        </mxCell>
        <mxCell id="nJdUsmHLHT1U4WWe08nF-3" value="&lt;font color=&quot;#ff0a0a&quot;&gt;&lt;span style=&quot;font-size: 30px;&quot;&gt;overflow&lt;/span&gt;&lt;/font&gt;" style="text;html=1;strokeColor=none;fillColor=none;align=center;verticalAlign=middle;whiteSpace=wrap;rounded=0;" parent="1" vertex="1">
          <mxGeometry x="718.5" y="1040" width="60" height="30" as="geometry" />
        </mxCell>
        <mxCell id="lKXgJurtdIhqgQwa-Es6-1" value="" style="ellipse;whiteSpace=wrap;html=1;direction=south;fillColor=#e3c800;fontColor=#000000;strokeColor=#B09500;" parent="1" vertex="1">
          <mxGeometry x="1125" y="1366.25" width="60" height="150" as="geometry" />
        </mxCell>
        <mxCell id="lKXgJurtdIhqgQwa-Es6-2" value="&lt;font style=&quot;font-size: 25px;&quot;&gt;0&lt;/font&gt;" style="text;html=1;align=center;verticalAlign=middle;resizable=0;points=[];autosize=1;strokeColor=none;fillColor=none;" parent="1" vertex="1">
          <mxGeometry x="1128.5" y="1386" width="45" height="45" as="geometry" />
        </mxCell>
        <mxCell id="lKXgJurtdIhqgQwa-Es6-3" value="&lt;font style=&quot;font-size: 25px;&quot;&gt;1&lt;/font&gt;" style="text;html=1;align=center;verticalAlign=middle;resizable=0;points=[];autosize=1;strokeColor=none;fillColor=none;" parent="1" vertex="1">
          <mxGeometry x="1128" y="1446" width="45" height="45" as="geometry" />
        </mxCell>
        <mxCell id="lKXgJurtdIhqgQwa-Es6-4" value="" style="endArrow=classic;html=1;rounded=0;strokeWidth=4;" parent="1" source="eBgDP88SWXyxo9h_Qqma-3" target="lKXgJurtdIhqgQwa-Es6-3" edge="1">
          <mxGeometry width="50" height="50" relative="1" as="geometry">
            <mxPoint x="-960" y="1620" as="sourcePoint" />
            <mxPoint x="1095" y="1476" as="targetPoint" />
            <Array as="points">
              <mxPoint x="1065" y="1620" />
              <mxPoint x="1065" y="1470" />
            </Array>
          </mxGeometry>
        </mxCell>
        <mxCell id="lKXgJurtdIhqgQwa-Es6-5" value="&lt;font style=&quot;font-size: 40px;&quot;&gt;imm8&lt;/font&gt;" style="text;html=1;align=center;verticalAlign=middle;resizable=0;points=[];autosize=1;strokeColor=none;fillColor=none;" parent="1" vertex="1">
          <mxGeometry x="-958.5" y="1561.5" width="135" height="60" as="geometry" />
        </mxCell>
        <mxCell id="lKXgJurtdIhqgQwa-Es6-7" value="" style="endArrow=classic;html=1;rounded=0;strokeWidth=10;" parent="1" edge="1">
          <mxGeometry width="50" height="50" relative="1" as="geometry">
            <mxPoint x="1185" y="1439.5800000000002" as="sourcePoint" />
            <mxPoint x="1290" y="1440" as="targetPoint" />
          </mxGeometry>
        </mxCell>
        <mxCell id="lKXgJurtdIhqgQwa-Es6-8" value="" style="endArrow=classic;html=1;rounded=0;strokeWidth=4;strokeColor=#ff0000;entryX=0.228;entryY=1.001;entryDx=0;entryDy=0;entryPerimeter=0;" parent="1" edge="1">
          <mxGeometry width="50" height="50" relative="1" as="geometry">
            <mxPoint x="1156" y="2809" as="sourcePoint" />
            <mxPoint x="1156.8580000000002" y="1521.3985000000002" as="targetPoint" />
          </mxGeometry>
        </mxCell>
        <mxCell id="lKXgJurtdIhqgQwa-Es6-9" value="&lt;font color=&quot;#ff0d0d&quot; style=&quot;font-size: 35px;&quot;&gt;DataSrc&lt;/font&gt;" style="edgeLabel;html=1;align=center;verticalAlign=middle;resizable=0;points=[];" parent="lKXgJurtdIhqgQwa-Es6-8" connectable="0" vertex="1">
          <mxGeometry x="0.515" relative="1" as="geometry">
            <mxPoint x="-2" y="283" as="offset" />
          </mxGeometry>
        </mxCell>
        <mxCell id="eBgDP88SWXyxo9h_Qqma-1" value="" style="endArrow=classic;html=1;rounded=0;entryX=1;entryY=1;entryDx=0;entryDy=0;strokeColor=#330000;strokeWidth=9;" parent="1" target="19Ce7UIDu2drrkDC618h-132" edge="1">
          <mxGeometry width="50" height="50" relative="1" as="geometry">
            <mxPoint x="-60" y="1260" as="sourcePoint" />
            <mxPoint x="-3900" y="1665" as="targetPoint" />
            <Array as="points">
              <mxPoint x="-60" y="1050" />
              <mxPoint x="-3780" y="1035" />
              <mxPoint x="-3780" y="1497" />
            </Array>
          </mxGeometry>
        </mxCell>
        <mxCell id="eBgDP88SWXyxo9h_Qqma-4" value="" style="endArrow=classic;html=1;rounded=0;strokeWidth=4;" parent="1" target="eBgDP88SWXyxo9h_Qqma-3" edge="1">
          <mxGeometry width="50" height="50" relative="1" as="geometry">
            <mxPoint x="-960" y="1620" as="sourcePoint" />
            <mxPoint x="1128" y="1469" as="targetPoint" />
            <Array as="points" />
          </mxGeometry>
        </mxCell>
        <mxCell id="eBgDP88SWXyxo9h_Qqma-3" value="&lt;font style=&quot;font-size: 42px;&quot;&gt;Ext&lt;/font&gt;" style="ellipse;whiteSpace=wrap;html=1;fillColor=#fff2cc;strokeColor=#d6b656;" parent="1" vertex="1">
          <mxGeometry x="-90" y="1575" width="165" height="80" as="geometry" />
        </mxCell>
        <mxCell id="O2GREaR3jLoIwTCZHl1Y-1" value="" style="endArrow=classic;html=1;rounded=0;strokeWidth=10;entryX=0.319;entryY=-0.011;entryDx=0;entryDy=0;entryPerimeter=0;" parent="1" target="19Ce7UIDu2drrkDC618h-11" edge="1">
          <mxGeometry width="50" height="50" relative="1" as="geometry">
            <mxPoint x="-490" y="600" as="sourcePoint" />
            <mxPoint x="-1115" y="602.5" as="targetPoint" />
          </mxGeometry>
        </mxCell>
        <mxCell id="O2GREaR3jLoIwTCZHl1Y-9" value="" style="edgeStyle=orthogonalEdgeStyle;elbow=horizontal;endArrow=classic;html=1;rounded=0;endSize=8;startSize=8;strokeWidth=7;strokeColor=#FF0000;shadow=0;entryX=0.5;entryY=1;entryDx=0;entryDy=0;" parent="1" target="19Ce7UIDu2drrkDC618h-9" edge="1">
          <mxGeometry width="50" height="50" relative="1" as="geometry">
            <mxPoint x="-438.67" y="2041.5" as="sourcePoint" />
            <mxPoint x="1605" y="1590" as="targetPoint" />
            <Array as="points">
              <mxPoint x="1500" y="2042" />
              <mxPoint x="1500" y="1590" />
              <mxPoint x="1515" y="1590" />
              <mxPoint x="1515" y="1515" />
            </Array>
          </mxGeometry>
        </mxCell>
        <mxCell id="O2GREaR3jLoIwTCZHl1Y-10" value="" style="endArrow=classic;html=1;rounded=0;strokeWidth=4;strokeColor=#ff0000;entryX=0.83;entryY=1.003;entryDx=0;entryDy=0;entryPerimeter=0;" parent="1" edge="1">
          <mxGeometry width="50" height="50" relative="1" as="geometry">
            <mxPoint x="1680.83" y="2806" as="sourcePoint" />
            <mxPoint x="1688.755" y="1518.1954999999998" as="targetPoint" />
          </mxGeometry>
        </mxCell>
        <mxCell id="O2GREaR3jLoIwTCZHl1Y-11" value="&lt;font color=&quot;#ff0d0d&quot; style=&quot;font-size: 35px;&quot;&gt;ByteSel&lt;/font&gt;" style="edgeLabel;html=1;align=center;verticalAlign=middle;resizable=0;points=[];" parent="O2GREaR3jLoIwTCZHl1Y-10" connectable="0" vertex="1">
          <mxGeometry x="0.515" relative="1" as="geometry">
            <mxPoint x="-5" y="353" as="offset" />
          </mxGeometry>
        </mxCell>
        <mxCell id="O2GREaR3jLoIwTCZHl1Y-13" value="" style="ellipse;whiteSpace=wrap;html=1;direction=south;fillColor=#e3c800;fontColor=#000000;strokeColor=#B09500;" parent="1" vertex="1">
          <mxGeometry x="944" y="1272.25" width="60" height="150" as="geometry" />
        </mxCell>
        <mxCell id="O2GREaR3jLoIwTCZHl1Y-14" value="&lt;font style=&quot;font-size: 25px;&quot;&gt;0&lt;/font&gt;" style="text;html=1;align=center;verticalAlign=middle;resizable=0;points=[];autosize=1;strokeColor=none;fillColor=none;" parent="1" vertex="1">
          <mxGeometry x="947.5" y="1292" width="45" height="45" as="geometry" />
        </mxCell>
        <mxCell id="O2GREaR3jLoIwTCZHl1Y-15" value="&lt;font style=&quot;font-size: 25px;&quot;&gt;1&lt;/font&gt;" style="text;html=1;align=center;verticalAlign=middle;resizable=0;points=[];autosize=1;strokeColor=none;fillColor=none;" parent="1" vertex="1">
          <mxGeometry x="947" y="1352" width="45" height="45" as="geometry" />
        </mxCell>
        <mxCell id="O2GREaR3jLoIwTCZHl1Y-16" value="" style="endArrow=classic;html=1;rounded=0;strokeWidth=4;" parent="1" edge="1">
          <mxGeometry width="50" height="50" relative="1" as="geometry">
            <mxPoint x="375" y="1260" as="sourcePoint" />
            <mxPoint x="944" y="1370" as="targetPoint" />
            <Array as="points">
              <mxPoint x="375" y="1500" />
              <mxPoint x="870" y="1500" />
              <mxPoint x="870" y="1370" />
            </Array>
          </mxGeometry>
        </mxCell>
        <mxCell id="O2GREaR3jLoIwTCZHl1Y-18" value="" style="endArrow=classic;html=1;rounded=0;strokeWidth=4;strokeColor=#ff0000;entryX=0.228;entryY=1.001;entryDx=0;entryDy=0;entryPerimeter=0;" parent="1" edge="1">
          <mxGeometry width="50" height="50" relative="1" as="geometry">
            <mxPoint x="1155" y="1575" as="sourcePoint" />
            <mxPoint x="973.1880000000002" y="1422.2485000000001" as="targetPoint" />
            <Array as="points">
              <mxPoint x="975" y="1575" />
            </Array>
          </mxGeometry>
        </mxCell>
        <mxCell id="t6L3B0jL4XT4Ddd94pC9-1" value="" style="endArrow=classic;html=1;rounded=0;strokeWidth=4;strokeColor=#ff0000;" edge="1" parent="1" source="t6L3B0jL4XT4Ddd94pC9-2">
          <mxGeometry width="50" height="50" relative="1" as="geometry">
            <mxPoint x="-15" y="1515" as="sourcePoint" />
            <mxPoint x="-15.000000000000057" y="1567.5" as="targetPoint" />
          </mxGeometry>
        </mxCell>
        <mxCell id="t6L3B0jL4XT4Ddd94pC9-3" value="" style="edgeStyle=orthogonalEdgeStyle;rounded=0;orthogonalLoop=1;jettySize=auto;html=1;" edge="1" parent="1" source="t6L3B0jL4XT4Ddd94pC9-2" target="eBgDP88SWXyxo9h_Qqma-3">
          <mxGeometry relative="1" as="geometry" />
        </mxCell>
        <mxCell id="t6L3B0jL4XT4Ddd94pC9-2" value="&lt;font color=&quot;#ff0000&quot; style=&quot;font-size: 35px;&quot;&gt;ExtOp&lt;/font&gt;" style="text;html=1;align=center;verticalAlign=middle;resizable=0;points=[];autosize=1;strokeColor=none;fillColor=none;" vertex="1" parent="1">
          <mxGeometry x="-75" y="1422" width="135" height="60" as="geometry" />
        </mxCell>
      </root>
    </mxGraphModel>
  </diagram>
</mxfile>
